<?xml version="1.0" encoding="utf-8"?>
<!-- Generator: Adobe Illustrator 25.4.1, SVG Export Plug-In . SVG Version: 6.00 Build 0)  -->
<svg version="1.1" id="Layer_1" xmlns="http://www.w3.org/2000/svg" xmlns:xlink="http://www.w3.org/1999/xlink" x="0px" y="0px"
	 viewBox="0 0 100 100" style="enable-background:new 0 0 100 100;" xml:space="preserve">
<style type="text/css">
	.st0{clip-path:url(#SVGID_00000164481301768202410700000008696527137375282818_);}
	.st1{fill:#FE9601;}
	.st2{fill:#FFFFFF;}
</style>
<g>
	<defs>
		<rect id="SVGID_1_" width="100" height="100"/>
	</defs>
	<clipPath id="SVGID_00000085965454623490800930000004755865451883230107_">
		<use xlink:href="#SVGID_1_"  style="overflow:visible;"/>
	</clipPath>
	<g id="instagram" style="clip-path:url(#SVGID_00000085965454623490800930000004755865451883230107_);">
		<path class="st1" d="M84.8,97.9h-70C7.6,97.9,1.8,92.1,1.8,85V15c0-7.1,5.8-12.9,12.9-12.9h70c7.1,0,12.9,5.8,12.9,12.9v70
			C97.7,92.1,91.9,97.9,84.8,97.9z"/>
		<path id="Pfad_23" class="st2" d="M50.3,33.7c-9.1,0-16.6,7.4-16.6,16.5c0,0,0,0,0,0c0,9.1,7.4,16.6,16.5,16.6c0,0,0,0,0.1,0
			c9.1,0,16.6-7.4,16.6-16.5c0,0,0,0,0-0.1C66.9,41.1,59.5,33.7,50.3,33.7C50.3,33.7,50.3,33.7,50.3,33.7z M50.3,61
			c-5.9,0-10.8-4.8-10.8-10.8c0-5.9,4.8-10.8,10.8-10.8c5.9,0,10.8,4.8,10.8,10.8C61,56.2,56.2,61,50.3,61L50.3,61z M71.4,33
			c0-2.1-1.7-3.9-3.9-3.9c-2.1,0-3.9,1.7-3.9,3.9c0,2.1,1.7,3.9,3.8,3.9c0,0,0,0,0,0C69.7,36.9,71.4,35.2,71.4,33
			C71.4,33,71.4,33,71.4,33z M82.4,36.9c-0.2-5.2-1.4-9.8-5.2-13.5s-8.4-5-13.5-5.2c-5.3-0.3-21.3-0.3-26.7,0
			c-5.2,0.2-9.8,1.4-13.5,5.2s-5,8.4-5.2,13.5c-0.3,5.3-0.3,21.3,0,26.7c0.2,5.2,1.4,9.8,5.2,13.5c3.8,3.8,8.4,5,13.5,5.2
			c5.3,0.3,21.3,0.3,26.7,0c5.2-0.2,9.8-1.4,13.5-5.2c3.8-3.8,5-8.4,5.2-13.5C82.7,58.2,82.7,42.3,82.4,36.9L82.4,36.9z M75.5,69.3
			c-1.1,2.8-3.3,5-6.1,6.1c-4.3,1.7-14.4,1.3-19.1,1.3s-14.8,0.4-19.1-1.3c-2.8-1.1-5-3.3-6.1-6.1c-1.7-4.3-1.3-14.4-1.3-19.1
			s-0.4-14.8,1.3-19.1c1.1-2.8,3.3-5,6.1-6.1c4.3-1.7,14.4-1.3,19.1-1.3s14.8-0.4,19.1,1.3c2.8,1.1,5,3.3,6.1,6.1
			c1.7,4.3,1.3,14.4,1.3,19.1S77.2,65.1,75.5,69.3L75.5,69.3z"/>
	</g>
</g>
</svg>
